<svg role="img" version="1.1" xmlns="http://www.w3.org/2000/svg" xmlns:xlink="http://www.w3.org/1999/xlink" viewBox="-3 -3 51 51.9" xml:space="preserve">
	<title>Toqué!</title>
	<path d="M41.4,23.2c-0.3,0.3-0.1,0.8,0.1,1.2c0.2,0.4,0.1,1.1-0.2,1.6c-0.3,0.4-1,0.7-1.3,0.9c-0.3,0.2-0.3,0.6,0,0.9
		c0.3,0.2,1.6-0.1,2.2-0.8c0.6-0.7,0.8-1.8,0.6-2.7C42.5,23.4,41.6,23,41.4,23.2 M42.5,2.2c-0.4,1.4-2,17.2-1.8,18.7
		c0.8,0.4,1.4,0.5,1.4,0.5S43,9,43.2,8.2C43.5,7.5,45,3.2,45,3.2L42.5,2.2z M35.8,10.7l1.1,0.8l2.4-4.2L38,6.3L35.8,10.7z
			M34.9,14.2c0,0,0.1-0.9,0.9-1.1c0.8-0.1,1.2,0.7,1.2,1.1H34.9z M35.7,12.1c-1.4,0-2.4,1.4-2.4,2.9c0,1.4,0.6,2.5,2.2,2.5
		c1.6,0,2.3-1.3,2.4-1.7c-0.5-0.1-1.2-0.2-1.2-0.2s-0.2,0.5-0.9,0.5c-0.6,0-0.8-0.5-0.8-1.1c0,0,2.8-0.1,3.1-0.2
		C38.3,12.5,36.8,12.1,35.7,12.1 M30.1,29.7h-0.6c-0.2,0-0.4,0.2-0.4,0.4c0,0.8-0.4,4.1-2.8,6.4c-2.4,2.3-4.7,3.5-7,3.5l-0.2,1.6
		c0,0,5.6-0.3,8.7-4.2c3.1-4,2.7-7.2,2.7-7.2S30.5,29.7,30.1,29.7 M30.7,17.2c-0.5-0.4-0.8-0.1-1.1,0.2c-0.3,0.3-0.6,0.5-1.1,0.5
		c-0.8,0-0.8-0.6-0.8-1.6C27,16,26,15.9,26,15.9s-0.2,0.3-0.1,1.7c0.1,1.9,1.1,2.5,2.3,2.5c1.2,0,2.3-0.8,2.8-1.7
		C31.2,17.9,31.2,17.5,30.7,17.2 M21.1,16.3c0.6,0,1,0.4,1,1c0,0.6-0.5,0.9-1,0.9c-0.5,0-1.1-0.3-1.1-0.9
		C20,16.7,20.5,16.3,21.1,16.3 M21.5,19.2c-1,3.9-2.3,14.9-2.1,19c0.8-0.8,3.2-2,3.6-2.3c0.7-0.6,0.5-1.2,0.4-2.8
		c-0.1-1.5-0.5-4.4-0.5-4.4c-0.2-1.9-0.6-4.4-0.3-6.9c0.3-2.5,1-6.1,1.3-7.1c-0.5,0-0.9,0-0.9,0l-0.4,0.8c-0.2-0.2-0.4-0.5-1.5-0.5
		c-2,0-2.9,1.7-2.9,2.7c0,1,0.5,1.8,1.7,1.8C20.9,19.5,21.4,19.3,21.5,19.2 M15.6,18.8c0,0.6-0.5,1-1.1,1c-0.6,0-1.1-0.4-1.1-1
		c0-0.6,0.5-1.1,1.1-1.1C15.2,17.7,15.6,18.2,15.6,18.8 M11.7,16.5c0,0-0.4,0.9-0.2,2.4c0.2,1.6,1.7,2.4,2.9,2.4
		c1.2,0,2.6-0.7,2.6-2.5c0-1.8-1.4-2.7-2.5-2.7C13.3,16,11.7,16.5,11.7,16.5 M13.5,36.1c-2-5-3.6-12.2-4.2-15.8
		c-0.5-2.9-0.8-6.6-0.8-6.6C8.8,13.3,22.7,2.6,22.7,2.6S21.9,1.5,20.2,0C16,3.7,0,19.5,0,19.5s0.7,1,1.4,2.1
		c1.7-2.6,3.1-4.8,4.7-6.2c0.1,1.8,0.2,3.7,1.1,8c0.9,4.4,2.8,8.8,4,11.7c1.1,2.9,5,9.9,5,9.9c0.3,0.5,0.6,0.9,0.9,0.9
		c0.3,0,0.9-0.4,0.2-1.3C16.1,42.9,15.4,40.9,13.5,36.1"></path>
</svg>
